<svg id="Layer_1" data-name="Layer 1" xmlns="http://www.w3.org/2000/svg" xmlns:xlink="http://www.w3.org/1999/xlink" viewBox="0 0 66.94 65.83"><defs><style>.cls-1{fill:#404040;}.cls-2{fill:none;}.cls-3{fill:#9e9b9c;}.cls-4{fill:url(#linear-gradient);}.cls-5{fill:url(#linear-gradient-2);}.cls-6{fill:url(#linear-gradient-3);}.cls-7{fill:url(#linear-gradient-4);}.cls-8{fill:url(#linear-gradient-5);}.cls-9{fill:url(#linear-gradient-6);}.cls-10{fill:url(#linear-gradient-7);}</style><linearGradient id="linear-gradient" x1="-27.46" y1="-49.07" x2="-117.95" y2="-45.87" gradientTransform="translate(118.72 101.75) rotate(3)" gradientUnits="userSpaceOnUse"><stop offset="0.13" stop-color="#ddd9d7"/><stop offset="0.16" stop-color="#cecbc9"/><stop offset="0.24" stop-color="#a7a7a6"/><stop offset="0.25" stop-color="#a2a2a1"/><stop offset="0.28" stop-color="#a9a9a9"/><stop offset="0.32" stop-color="#bbb"/><stop offset="0.35" stop-color="#acacac"/><stop offset="0.42" stop-color="#848585"/><stop offset="0.42" stop-color="#808181"/><stop offset="0.48" stop-color="#8d8e8e"/><stop offset="0.6" stop-color="#b1b1b1"/><stop offset="0.7" stop-color="#d6d6d6"/><stop offset="0.72" stop-color="#cccdcd"/><stop offset="0.77" stop-color="#b2b4b4"/><stop offset="0.83" stop-color="#878b8c"/><stop offset="0.9" stop-color="#4d5455"/><stop offset="0.92" stop-color="#707475"/><stop offset="0.96" stop-color="#9fa1a1"/><stop offset="0.98" stop-color="#bdbdbd"/><stop offset="1" stop-color="#c8c7c7"/></linearGradient><linearGradient id="linear-gradient-2" x1="-117.46" y1="-86.06" x2="-29.94" y2="84.59" gradientTransform="translate(118.72 101.75) rotate(3)" gradientUnits="userSpaceOnUse"><stop offset="0.03" stop-color="#4e4d4d"/><stop offset="0.04" stop-color="#636363"/><stop offset="0.06" stop-color="#737474"/><stop offset="0.08" stop-color="#7f7f80"/><stop offset="0.11" stop-color="#858687"/><stop offset="0.18" stop-color="#878889"/><stop offset="0.35" stop-color="#4e4d4d"/><stop offset="0.39" stop-color="#6b6a6a"/><stop offset="0.45" stop-color="#888787"/><stop offset="0.51" stop-color="#9f9e9e"/><stop offset="0.58" stop-color="#b2b1b1"/><stop offset="0.66" stop-color="#bebdbd"/><stop offset="0.77" stop-color="#c6c5c5"/><stop offset="1" stop-color="#c8c7c7"/></linearGradient><linearGradient id="linear-gradient-3" x1="-64.21" y1="-42.78" x2="-137.18" y2="-80.72" gradientTransform="translate(118.72 101.75) rotate(3)" gradientUnits="userSpaceOnUse"><stop offset="0" stop-color="#ddd9d7"/><stop offset="0.04" stop-color="#b3b2b1"/><stop offset="0.12" stop-color="#6a6f6f"/><stop offset="0.16" stop-color="#4d5455"/><stop offset="0.73" stop-color="#7d8386"/><stop offset="0.82" stop-color="#868b8f"/><stop offset="0.84" stop-color="#8b9093"/><stop offset="0.86" stop-color="#9a9da0"/><stop offset="0.88" stop-color="#b3b4b5"/><stop offset="0.9" stop-color="#c8c7c7"/></linearGradient><linearGradient id="linear-gradient-4" x1="-68.66" y1="-44.1" x2="-141.63" y2="-82.05" gradientTransform="translate(118.72 101.75) rotate(3)" gradientUnits="userSpaceOnUse"><stop offset="0" stop-color="#ddd9d7"/><stop offset="0.04" stop-color="#b3b2b1"/><stop offset="0.12" stop-color="#6a6f6f"/><stop offset="0.16" stop-color="#4d5455"/><stop offset="0.3" stop-color="#767c7c"/><stop offset="0.59" stop-color="#d6d7d7"/><stop offset="0.67" stop-color="#d4d5d5"/><stop offset="0.71" stop-color="#cbcdcd"/><stop offset="0.75" stop-color="#bdc0c1"/><stop offset="0.78" stop-color="#aaadaf"/><stop offset="0.81" stop-color="#909598"/><stop offset="0.82" stop-color="#868b8f"/><stop offset="0.84" stop-color="#8b9093"/><stop offset="0.86" stop-color="#9a9da0"/><stop offset="0.88" stop-color="#b3b4b5"/><stop offset="0.9" stop-color="#c8c7c7"/><stop offset="0.92" stop-color="#c3c2c3"/><stop offset="0.95" stop-color="#b4b4b6"/><stop offset="0.98" stop-color="#9b9ea0"/><stop offset="1" stop-color="#868b8f"/></linearGradient><linearGradient id="linear-gradient-5" x1="-67.97" y1="-45.44" x2="-140.94" y2="-83.38" xlink:href="#linear-gradient-4"/><linearGradient id="linear-gradient-6" x1="-58.11" y1="-64.39" x2="-131.08" y2="-102.33" xlink:href="#linear-gradient-4"/><linearGradient id="linear-gradient-7" x1="-58.46" y1="-53.51" x2="-143.66" y2="-103.85" gradientTransform="translate(118.72 101.75) rotate(3)" gradientUnits="userSpaceOnUse"><stop offset="0.03" stop-color="#676767"/><stop offset="0.09" stop-color="#7e7e7d"/><stop offset="0.16" stop-color="#929291"/><stop offset="0.23" stop-color="#9e9e9d"/><stop offset="0.29" stop-color="#a2a2a1"/><stop offset="0.35" stop-color="#9a9a99"/><stop offset="0.44" stop-color="#838383"/><stop offset="0.52" stop-color="#676767"/><stop offset="0.53" stop-color="#6d6d6d"/><stop offset="0.59" stop-color="#979797"/><stop offset="0.64" stop-color="#b1b1b1"/><stop offset="0.67" stop-color="#bbb"/><stop offset="0.71" stop-color="#b9b9b9"/><stop offset="0.73" stop-color="#b2b3b4"/><stop offset="0.74" stop-color="#a6a8aa"/><stop offset="0.75" stop-color="#95999c"/><stop offset="0.76" stop-color="#868b8f"/><stop offset="0.79" stop-color="#8b9093"/><stop offset="0.83" stop-color="#9a9da0"/><stop offset="0.87" stop-color="#b3b4b5"/><stop offset="0.9" stop-color="#c8c7c7"/><stop offset="0.92" stop-color="#c3c2c3"/><stop offset="0.95" stop-color="#b4b4b6"/><stop offset="0.98" stop-color="#9b9ea0"/><stop offset="1" stop-color="#868b8f"/></linearGradient></defs><path class="cls-1" d="M.13,21.48v.07S.13,21.51.13,21.48Z"/><path class="cls-2" d="M61.35,31.78l0,0"/><path class="cls-2" d="M61.35,31.78l0,0"/><path class="cls-3" d="M45.35,65.37c.23-.06.46-.14.69-.22Z"/><path class="cls-4" d="M66.94,36.06C66.63,40.63,64.73,49,62.22,52.9,60.08,56.26,53,62.4,47,64.81l-.06,0h0l0,0-.05,0,0,0C43.8,66,40.17,64.3,38.07,63L38,63c-.38-.22-.7-.43-1-.61-.44-.3-.69-.49-.69-.49-.57-.43-1.14-.87-1.7-1.34l-.44-.38c-.18-.14-.35-.3-.53-.45L32.9,59l-.78-.73-.82-.79c-.41-.39-.81-.79-1.21-1.19,9-1.95,23.12-7.52,31-13.22,3.28-2.37,5.49-4.76,5.8-6.91C66.93,36.13,66.93,36.09,66.94,36.06Z"/><path class="cls-3" d="M66.91,36v.06s0,.08,0,.12Z"/><path class="cls-5" d="M46.74,64.91c-.16.06-.39.15-.67.24l-.69.22a4.26,4.26,0,0,1-.54.15l-.25.06-.26.06-.3,0-.38.06c-4.59.5-17.42-1.42-25.36-5.09L18,60.5l-.35-.17A18.11,18.11,0,0,1,12.05,56C6.57,49.21-.06,32.71,0,23.25v0a9.79,9.79,0,0,1,1.43-4.39,1.3,1.3,0,0,0,.1-.15c.06-.11.13-.21.2-.32a20,20,0,0,1,5.7-5.58C10,25.5,18.43,44.49,30.09,56.3c.4.4.8.8,1.21,1.19s1.06,1,1.6,1.52l.78.71c.18.15.35.31.53.45l.44.38c.56.47,1.13.91,1.7,1.34l.69.49c.26.18.58.39,1,.61l.07,0C40.17,64.3,43.8,66,46.74,64.91Z"/><path class="cls-6" d="M.12,21.58c-.06.51-.09,1-.11,1.36C0,22.56.06,22.09.12,21.58Z"/><path class="cls-7" d="M0,23.11v.16A.86.86,0,0,1,0,23.11Z"/><path class="cls-8" d="M.12,21.55v0Z"/><path class="cls-9" d="M66.91,36v.06s0,.08,0,.12Z"/><path class="cls-10" d="M66.91,36.05V36l0,.18c-.31,2.15-2.52,4.54-5.8,6.91a59.69,59.69,0,0,1-14.86-8C33.88,26.13,26,11.29,15.57,10.53a13.36,13.36,0,0,0-8.13,2.25,19.86,19.86,0,0,0-5.7,5.58c-.07.11-.14.21-.2.32l-.1.14A9.82,9.82,0,0,0,0,23.22v-.28c0-.38,0-.85.11-1.36v-.1c0-.06,0-.13,0-.19v0C1.64,11.23,12.1-.23,20.59,0c10.3.28,19.09,12.54,27.08,19.92,6.85,6.32,12.38,9,15.86,11.26h0c2.25,1.44,3.5,2.73,3.37,4.8Z"/></svg>