<svg id="Layer_1" data-name="Layer 1" xmlns="http://www.w3.org/2000/svg" xmlns:xlink="http://www.w3.org/1999/xlink" viewBox="0 0 231.12 65.83"><defs><style>.cls-1{fill:#1e1e1c;}.cls-2{fill:#404040;}.cls-3{fill:none;}.cls-4{fill:#9e9b9c;}.cls-5{fill:url(#linear-gradient);}.cls-6{fill:url(#linear-gradient-2);}.cls-7{fill:url(#linear-gradient-3);}.cls-8{fill:url(#linear-gradient-4);}.cls-9{fill:url(#linear-gradient-5);}.cls-10{fill:url(#linear-gradient-6);}.cls-11{fill:url(#linear-gradient-7);}</style><linearGradient id="linear-gradient" x1="135.56" y1="-83.32" x2="45.07" y2="-80.12" gradientTransform="translate(118.32 127.42) rotate(3)" gradientUnits="userSpaceOnUse"><stop offset="0.13" stop-color="#ddd9d7"/><stop offset="0.16" stop-color="#cecbc9"/><stop offset="0.24" stop-color="#a7a7a6"/><stop offset="0.25" stop-color="#a2a2a1"/><stop offset="0.28" stop-color="#a9a9a9"/><stop offset="0.32" stop-color="#bbb"/><stop offset="0.35" stop-color="#acacac"/><stop offset="0.42" stop-color="#848585"/><stop offset="0.42" stop-color="#808181"/><stop offset="0.48" stop-color="#8d8e8e"/><stop offset="0.6" stop-color="#b1b1b1"/><stop offset="0.7" stop-color="#d6d6d6"/><stop offset="0.72" stop-color="#cccdcd"/><stop offset="0.77" stop-color="#b2b4b4"/><stop offset="0.83" stop-color="#878b8c"/><stop offset="0.9" stop-color="#4d5455"/><stop offset="0.92" stop-color="#707475"/><stop offset="0.96" stop-color="#9fa1a1"/><stop offset="0.98" stop-color="#bdbdbd"/><stop offset="1" stop-color="#c8c7c7"/></linearGradient><linearGradient id="linear-gradient-2" x1="45.56" y1="-120.31" x2="133.07" y2="50.34" gradientTransform="translate(118.32 127.42) rotate(3)" gradientUnits="userSpaceOnUse"><stop offset="0.03" stop-color="#4e4d4d"/><stop offset="0.04" stop-color="#636363"/><stop offset="0.06" stop-color="#737474"/><stop offset="0.08" stop-color="#7f7f80"/><stop offset="0.11" stop-color="#858687"/><stop offset="0.18" stop-color="#878889"/><stop offset="0.35" stop-color="#4e4d4d"/><stop offset="0.39" stop-color="#6b6a6a"/><stop offset="0.45" stop-color="#888787"/><stop offset="0.51" stop-color="#9f9e9e"/><stop offset="0.58" stop-color="#b2b1b1"/><stop offset="0.66" stop-color="#bebdbd"/><stop offset="0.77" stop-color="#c6c5c5"/><stop offset="1" stop-color="#c8c7c7"/></linearGradient><linearGradient id="linear-gradient-3" x1="98.8" y1="-77.03" x2="25.83" y2="-114.97" gradientTransform="translate(118.32 127.42) rotate(3)" gradientUnits="userSpaceOnUse"><stop offset="0" stop-color="#ddd9d7"/><stop offset="0.04" stop-color="#b3b2b1"/><stop offset="0.12" stop-color="#6a6f6f"/><stop offset="0.16" stop-color="#4d5455"/><stop offset="0.73" stop-color="#7d8386"/><stop offset="0.82" stop-color="#868b8f"/><stop offset="0.84" stop-color="#8b9093"/><stop offset="0.86" stop-color="#9a9da0"/><stop offset="0.88" stop-color="#b3b4b5"/><stop offset="0.9" stop-color="#c8c7c7"/></linearGradient><linearGradient id="linear-gradient-4" x1="94.35" y1="-78.36" x2="21.38" y2="-116.3" gradientTransform="translate(118.32 127.42) rotate(3)" gradientUnits="userSpaceOnUse"><stop offset="0" stop-color="#ddd9d7"/><stop offset="0.04" stop-color="#b3b2b1"/><stop offset="0.12" stop-color="#6a6f6f"/><stop offset="0.16" stop-color="#4d5455"/><stop offset="0.3" stop-color="#767c7c"/><stop offset="0.59" stop-color="#d6d7d7"/><stop offset="0.67" stop-color="#d4d5d5"/><stop offset="0.71" stop-color="#cbcdcd"/><stop offset="0.75" stop-color="#bdc0c1"/><stop offset="0.78" stop-color="#aaadaf"/><stop offset="0.81" stop-color="#909598"/><stop offset="0.82" stop-color="#868b8f"/><stop offset="0.84" stop-color="#8b9093"/><stop offset="0.86" stop-color="#9a9da0"/><stop offset="0.88" stop-color="#b3b4b5"/><stop offset="0.9" stop-color="#c8c7c7"/><stop offset="0.92" stop-color="#c3c2c3"/><stop offset="0.95" stop-color="#b4b4b6"/><stop offset="0.98" stop-color="#9b9ea0"/><stop offset="1" stop-color="#868b8f"/></linearGradient><linearGradient id="linear-gradient-5" x1="95.05" y1="-79.69" x2="22.08" y2="-117.63" xlink:href="#linear-gradient-4"/><linearGradient id="linear-gradient-6" x1="104.9" y1="-98.64" x2="31.93" y2="-136.58" xlink:href="#linear-gradient-4"/><linearGradient id="linear-gradient-7" x1="104.56" y1="-87.76" x2="19.35" y2="-138.1" gradientTransform="translate(118.32 127.42) rotate(3)" gradientUnits="userSpaceOnUse"><stop offset="0.03" stop-color="#676767"/><stop offset="0.09" stop-color="#7e7e7d"/><stop offset="0.16" stop-color="#929291"/><stop offset="0.23" stop-color="#9e9e9d"/><stop offset="0.29" stop-color="#a2a2a1"/><stop offset="0.35" stop-color="#9a9a99"/><stop offset="0.44" stop-color="#838383"/><stop offset="0.52" stop-color="#676767"/><stop offset="0.53" stop-color="#6d6d6d"/><stop offset="0.59" stop-color="#979797"/><stop offset="0.64" stop-color="#b1b1b1"/><stop offset="0.67" stop-color="#bbb"/><stop offset="0.71" stop-color="#b9b9b9"/><stop offset="0.73" stop-color="#b2b3b4"/><stop offset="0.74" stop-color="#a6a8aa"/><stop offset="0.75" stop-color="#95999c"/><stop offset="0.76" stop-color="#868b8f"/><stop offset="0.79" stop-color="#8b9093"/><stop offset="0.83" stop-color="#9a9da0"/><stop offset="0.87" stop-color="#b3b4b5"/><stop offset="0.9" stop-color="#c8c7c7"/><stop offset="0.92" stop-color="#c3c2c3"/><stop offset="0.95" stop-color="#b4b4b6"/><stop offset="0.98" stop-color="#9b9ea0"/><stop offset="1" stop-color="#868b8f"/></linearGradient></defs><polygon class="cls-1" points="3.48 11.56 4.5 10.48 5.58 11.56 5.76 11.56 7 10.27 5.7 8.99 5.54 8.99 4.5 10.04 3.42 8.99 3.26 8.99 2 10.27 3.3 11.56 3.48 11.56"/><path class="cls-1" d="M2.66,21.06a3.72,3.72,0,0,0,1.9-.52c.12-.42.2-.84.28-1.24h0v0c.32,2.22,1.1,3.12,2.91,3.12H42.46a25.64,25.64,0,0,0,6.73-1l1.6-.46.5-2-.1-.08-1.58.4c-2.54.64-5.14-.2-5.14-1.74,0-1.24,1.28-1.8,2.52-1.8a5.15,5.15,0,0,1,3.08,1l.38-.46c-.78-1.68-1.78-2.58-3.08-2.58-1.88,0-3.64,2.06-3.64,4.26a3.16,3.16,0,0,0,1.1,2.4c-.66.06-1.44.08-2.3.08H8.24c-1.56,0-2-.6-2.18-2.4l-.62-5.3H4.88l-.66,1.66L2.58,15.48C.72,16.74,0,17.6,0,18.84S1.06,21.06,2.66,21.06Zm-.52-4.12,2.24-1.1.4,2.76a4.84,4.84,0,0,1-2.12.4C1.54,19,.8,18.72.8,18.24S1.24,17.38,2.14,16.94Z"/><path class="cls-1" d="M57.28,22.44H72.16a3.58,3.58,0,0,0,2-.73c.14-.38.22-.74.32-1.1h0c.26,1.09,1.33,1.83,2.94,1.84h4.33a3.22,3.22,0,0,0,2.24-1.05,8.81,8.81,0,0,0,4.84,1.38,14.72,14.72,0,0,0,5.62-1,6.53,6.53,0,0,0,3,.66h0a6.65,6.65,0,0,0,3.43-1,7.35,7.35,0,0,0,.54-2.8V11l1-.76v-.06l-1-1.21V7.53H101c-1.27.86-1.55,1.86-.89,2.91l.3,9.5a6.84,6.84,0,0,1-2.4.44,14,14,0,0,1-1.84-.14,5.91,5.91,0,0,0,.44-2.12,3.17,3.17,0,0,0-3.18-3.26c-2.08,0-4.14,1.64-6.78,5.52a8.17,8.17,0,0,1-1.4-.52l1-1.42-.52-.38L85,19a3.28,3.28,0,0,1-3.11,1.42H78c-1.74,0-2.3-.36-2.3-1.58V17H75l-.48,2.9a4.58,4.58,0,0,1-2.3.48H57.72c-1.72,0-2.32-.46-2.32-1.76V7.53h-.64l-1,1.94.26,9.19C54.14,21.46,55,22.44,57.28,22.44Zm35.24-5.52a3.61,3.61,0,0,1,3.24,2.52A17.61,17.61,0,0,1,89,20.72a8.47,8.47,0,0,1-1.58-.16C89.36,18,90.84,16.92,92.52,16.92Z"/><polygon class="cls-1" points="75.43 15.48 76.67 14.18 75.37 12.9 75.21 12.9 73.95 14.18 75.25 15.48 75.43 15.48"/><polygon class="cls-1" points="105.97 22.44 106.59 20.16 106.59 7.53 105.95 7.53 104.99 9.46 105.33 22.44 105.97 22.44"/><polygon class="cls-1" points="114.85 13.3 115.87 12.22 116.94 13.3 117.13 13.3 118.36 12 117.06 10.72 116.91 10.72 115.87 11.78 114.79 10.72 114.63 10.72 113.37 12 114.67 13.3 114.85 13.3"/><path class="cls-1" d="M115.77,22.76c2,0,3.15-1.46,3.15-3.7,0-2-.94-3.16-4.47-4.72l-.08.06v2A5.89,5.89,0,0,0,112.81,20,2.64,2.64,0,0,0,115.77,22.76ZM115.19,17c2.18,1,3,1.78,3,2.46s-.85,1.24-2.29,1.24-2.3-.48-2.3-1.26A3.8,3.8,0,0,1,115.19,17Z"/><path class="cls-1" d="M118.9,25.38V26l3.78,1.22a12.4,12.4,0,0,0,2.82-7.3,8.54,8.54,0,0,0-1.44-4.36h-.56l-.7,1.74c1.44,1.76,1.92,2.64,1.92,3.74C124.72,22.9,122.62,24.46,118.9,25.38Z"/><polygon class="cls-1" points="129 22.44 129.62 20.16 129.62 7.53 128.98 7.53 128.02 9.46 128.36 22.44 129 22.44"/><path class="cls-1" d="M136.07,19.94a8.54,8.54,0,0,0-1.44-4.36h-.56l-.7,1.74c1.44,1.76,1.92,2.64,1.92,3.74,0,1.84-2.09,3.4-5.81,4.32V26l3.78,1.22A12.45,12.45,0,0,0,136.07,19.94Z"/><polygon class="cls-1" points="134.19 14.06 135.43 12.76 134.13 11.48 133.97 11.48 132.72 12.76 134.01 14.06 134.19 14.06"/><path class="cls-1" d="M144.15,19.74c0-2.68-1.34-4.88-3-4.88-1.46,0-3,2.14-3,4.16a2.43,2.43,0,0,0,2.64,2.66,3.79,3.79,0,0,0,1.86-.42l.58-1.5a4.15,4.15,0,0,1,.12,1c0,2.28-2.44,3.88-6.7,4.62V26l3.76,1.22A11,11,0,0,0,144.15,19.74ZM141,19.62c-1.3,0-2.06-.3-2.06-1a1.74,1.74,0,0,1,1.66-1.72c1,0,2.06,1.1,2.52,2.44A6.55,6.55,0,0,1,141,19.62Z"/><polygon class="cls-1" points="5.54 31.74 4.5 32.8 3.42 31.74 3.26 31.74 2 33.02 3.3 34.32 3.48 34.32 4.5 33.24 5.58 34.32 5.76 34.32 7 33.02 5.7 31.74 5.54 31.74"/><polygon class="cls-1" points="29.3 46.99 29.14 46.99 28.1 48.05 27.02 46.99 26.86 46.99 25.6 48.27 26.9 49.57 27.08 49.57 28.1 48.49 29.18 49.57 29.36 49.57 30.6 48.27 29.3 46.99"/><path class="cls-1" d="M38.93,45.19h4a8.33,8.33,0,0,0,3.67-.92,7.62,7.62,0,0,0,.52-2.83,6.14,6.14,0,0,0-1-3.1h-.56l-.7,1.74a7.12,7.12,0,0,1,1.48,2.46,8.75,8.75,0,0,1-3.38.6H31.1c-1.74,0-2.3-.36-2.3-1.58v-1.8h-.64l-.48,2.9a4.58,4.58,0,0,1-2.3.48H8.24c-1.56,0-2-.6-2.18-2.4l-.62-5.3H4.88L4.22,37.1,2.58,38.24C.72,39.5,0,40.36,0,41.6s1.06,2.22,2.66,2.22a3.72,3.72,0,0,0,1.9-.52c.12-.42.2-.84.28-1.24h0v0c.32,2.21,1.1,3.11,2.91,3.11H25.31a3.51,3.51,0,0,0,2.05-.73c.14-.37.22-.73.32-1.09h0c.26,1.09,1.33,1.83,2.94,1.83h8.27ZM2.66,41.76C1.54,41.76.8,41.48.8,41s.44-.86,1.34-1.3l2.24-1.1.4,2.76A4.84,4.84,0,0,1,2.66,41.76Z"/><polygon class="cls-1" points="44.25 35.52 45.55 36.82 45.73 36.82 46.97 35.52 45.67 34.24 45.51 34.24 44.25 35.52"/><path class="cls-1" d="M88.4,30.28h-.56c-1.28.86-1.56,1.86-.9,2.92l.3,9.5a6.78,6.78,0,0,1-2.39.44,2,2,0,0,1-2.1-1.26L82.31,41c-.8-1.52-1.34-2-2.2-2-1.32,0-2.56,1.58-3,3.64a4,4,0,0,1-1.92.46,4.71,4.71,0,0,1-3.2-1c1-.86,1.48-1.5,1.48-2.18,0-1.16-.92-1.8-2.38-1.8a5.46,5.46,0,0,0-2.53.72L68,40.62l.24.52a2.24,2.24,0,0,1,2,1l.06.1a7.09,7.09,0,0,1-3.45.86H58.88c-1.52,0-2.26-.72-3-3l-1.45-4.22h-.54l-.7,1.74,1.41,3.5c.24.58.46,1.08.68,1.52a4.94,4.94,0,0,1-2.79.76c-1.8,0-2.28-.32-2.36-1.56l0-.32h-.6a7.41,7.41,0,0,0-.28,1.68c0,1.49.88,2.23,2.84,2.23a4.92,4.92,0,0,0,3.13-1,10.52,10.52,0,0,0,.28-1.25h.08c.83,1.46,1.67,2,2.88,2h8.29a6.93,6.93,0,0,0,4.2-2,4.67,4.67,0,0,0,3.88,2h0a3.81,3.81,0,0,0,2.36-.86,16.64,16.64,0,0,0,4.54,1.42,15.65,15.65,0,0,0,.5-1.51,2.58,2.58,0,0,0,2.22.95h0a6.74,6.74,0,0,0,3.45-.95,7.35,7.35,0,0,0,.54-2.8V33.8l1-.76V33l-1-1.22ZM77.89,42.52A1.86,1.86,0,0,1,79.53,41c.58,0,1,.34,1.56,1.34l.46.86a5.5,5.5,0,0,0,.3.5A16.84,16.84,0,0,1,77.89,42.52Z"/><polygon class="cls-1" points="92.82 45.19 93.44 42.92 93.44 30.28 92.8 30.28 91.84 32.22 92.18 45.19 92.82 45.19"/><path class="cls-1" d="M102.61,45.51c2,0,3.16-1.45,3.16-3.69,0-2-.94-3.16-4.47-4.72l-.08.06v2a5.89,5.89,0,0,0-1.56,3.58A2.63,2.63,0,0,0,102.61,45.51ZM102,39.76c2.17,1,3,1.78,3,2.46s-.86,1.24-2.3,1.24-2.29-.48-2.29-1.26A3.8,3.8,0,0,1,102,39.76Z"/><polygon class="cls-1" points="101.48 33.48 100.22 34.76 101.52 36.06 101.7 36.06 102.72 34.98 103.79 36.06 103.97 36.06 105.21 34.76 103.91 33.48 103.75 33.48 102.72 34.54 101.64 33.48 101.48 33.48"/><path class="cls-1" d="M110.83,37.62c-1.46,0-3,2.14-3,4.16a2.43,2.43,0,0,0,2.64,2.65,3.89,3.89,0,0,0,1.86-.41l.58-1.5a4.15,4.15,0,0,1,.12,1c0,2.27-2.44,3.87-6.7,4.61v.64L110.11,50a11,11,0,0,0,3.72-7.49C113.83,39.82,112.49,37.62,110.83,37.62Zm-.16,4.76c-1.3,0-2.06-.3-2.06-1a1.74,1.74,0,0,1,1.66-1.72c1,0,2.06,1.1,2.52,2.44A6.55,6.55,0,0,1,110.67,42.38Z"/><polygon class="cls-1" points="123.78 33.64 124.96 32.44 123.74 31.24 123.58 31.24 122.4 32.44 123.62 33.64 123.78 33.64"/><polygon class="cls-1" points="124.76 33.52 123.72 34.58 122.64 33.52 122.48 33.52 121.22 34.8 122.52 36.1 122.7 36.1 123.72 35.02 124.8 36.1 124.98 36.1 126.22 34.8 124.92 33.52 124.76 33.52"/><path class="cls-1" d="M126.61,45.19h0a6.73,6.73,0,0,0,3.44-.95,7.35,7.35,0,0,0,.54-2.8V33.8l1-.76V33l-1-1.22V30.28H130c-1.28.86-1.56,1.86-.9,2.92l.3,9.5a6.84,6.84,0,0,1-2.4.44c-1.54,0-2.08-.6-2.38-2.4l-.5-3.12h-.54l-.26.72c-.58,1.7-1.3,2.14-2.12,2.14A3,3,0,0,1,119,39h-.55l-.7,1.76c1.29,1.22,1.91,2.2,1.91,3.08,0,1.79-2.09,3.35-5.81,4.25v.64L117.61,50a12.44,12.44,0,0,0,2.81-7.29v-.22a2.53,2.53,0,0,0,.56.06c1.06,0,1.9-.72,2.28-2.32l.22,1.26c.52,2.82,1.22,3.71,3.12,3.71h0Z"/><polygon class="cls-1" points="135.63 42.92 135.63 30.28 135 30.28 134.04 32.22 134.38 45.19 135.01 45.19 135.63 42.92"/><path class="cls-1" d="M136.89,48.13v.64L140.65,50a11,11,0,0,0,3.72-7.49c0-2.68-1.34-4.88-3-4.88-1.46,0-3,2.14-3,4.16A2.43,2.43,0,0,0,141,44.43a3.89,3.89,0,0,0,1.86-.41l.58-1.5a4.15,4.15,0,0,1,.12,1C143.59,45.79,141.15,47.39,136.89,48.13Zm4.32-5.75c-1.3,0-2.06-.3-2.06-1a1.74,1.74,0,0,1,1.66-1.72c1,0,2.06,1.1,2.52,2.44A6.55,6.55,0,0,1,141.21,42.38Z"/><polygon class="cls-1" points="5.81 54.99 6.45 54.8 6.45 54.53 4.72 54.53 4.68 54.89 3.35 58.17 1.74 54.53 0.06 54.53 0.06 54.8 0.71 54.99 0.68 59.16 0.03 59.34 0.03 59.62 2 59.62 2 59.34 1.14 59.07 1.14 55.23 2.8 58.92 2.96 59.39 3.27 59.39 3.42 58.91 5 55.13 4.98 59.17 4.3 59.33 4.3 59.62 6.48 59.62 6.48 59.34 5.83 59.17 5.81 54.99"/><polygon class="cls-1" points="8.18 55.88 6.98 56.12 6.98 56.43 7.43 56.57 7.43 59.17 6.93 59.33 6.93 59.62 8.73 59.62 8.73 59.33 8.18 59.18 8.18 55.88"/><path class="cls-1" d="M8.28,54.4a.52.52,0,0,0-.51-.51.53.53,0,0,0-.52.51.52.52,0,0,0,1,0Z"/><path class="cls-1" d="M12.68,57.17c0-1-.34-1.29-1.07-1.29a1.84,1.84,0,0,0-1.25.69h0l-.16-.69h0l-1,.38v.23l.5.12v2.57l-.47.15v.29h1.73v-.29l-.5-.14V56.83a1.32,1.32,0,0,1,.86-.39c.5,0,.67.3.7.83v1.92l-.43.14v.29h1.68v-.28l-.5-.15Z"/><polygon class="cls-1" points="14.83 55.88 13.63 56.12 13.63 56.43 14.08 56.57 14.08 59.17 13.58 59.33 13.58 59.62 15.38 59.62 15.38 59.33 14.83 59.18 14.83 55.88"/><path class="cls-1" d="M14.93,54.4a.52.52,0,0,0-1,0,.52.52,0,0,0,1,0Z"/><path class="cls-1" d="M17.64,57.54l-.35-.16c-.46-.2-.6-.38-.6-.67a.52.52,0,0,1,.56-.52.85.85,0,0,1,.53.19l.31.68h.25l0-1a2.2,2.2,0,0,0-1-.24A1.25,1.25,0,0,0,16,57c0,.49.24.77.79,1l.33.15c.55.25.72.47.72.76a.58.58,0,0,1-.65.55.86.86,0,0,1-.62-.22l-.4-.86h-.28L16,59.47a2.19,2.19,0,0,0,1.06.29,1.37,1.37,0,0,0,1.49-1.16C18.55,58.17,18.32,57.83,17.64,57.54Z"/><path class="cls-1" d="M20.74,59.18c-.29,0-.52,0-.52-.64V56.42h1V56h-1V55h-.28l-.42.95-.56.15v.33h.54l0,2.46c0,.49.17.87.8.87a2,2,0,0,0,1.07-.36l-.06-.22A4.62,4.62,0,0,1,20.74,59.18Z"/><path class="cls-1" d="M23.89,55.87c-.29,0-.48.19-.76.56l-.28.38h0l-.07-.93h0l-1.11.38v.25l.51.1v2.56l-.48.16v.29h1.91v-.29l-.68-.12v-2.1a2.51,2.51,0,0,1,.52-.49l.63.23a.88.88,0,0,0,.28-.56A.38.38,0,0,0,23.89,55.87Z"/><path class="cls-1" d="M26.94,56.26l.52.17L26.51,59h0l-.92-2.61.55-.13V56H24.37v.27l.35.13L26.11,60l-.42,1h0a.47.47,0,0,0-.41-.32.4.4,0,0,0-.41.43.49.49,0,0,0,.51.48c.42,0,.61-.31.86-1L27.9,56.4l.35-.14V56H26.94Z"/><path class="cls-1" d="M31.79,55.87a1.9,1.9,0,0,0-1.82,2,1.75,1.75,0,0,0,1.82,1.87,1.89,1.89,0,0,0,1.82-2A1.71,1.71,0,0,0,31.79,55.87Zm.11,3.51c-.76,0-1.1-.88-1.13-1.73s.33-1.41.92-1.42,1.1.62,1.11,1.71C32.83,58.75,32.48,59.37,31.9,59.38Z"/><path class="cls-1" d="M36.3,53.89a1.91,1.91,0,0,0-1.68,2v0l-.53.16v.33h.53v2.79l-.47.15v.29h1.92v-.29l-.69-.15V56.4h1V56h-1v-.6c0-.85.35-1.14.77-1.14a.86.86,0,0,1,.34.08l.19.67a.55.55,0,0,0,.2,0,.4.4,0,0,0,.43-.43C37.31,54.26,36.93,53.89,36.3,53.89Z"/><polygon class="cls-1" points="39.9 54.99 40.55 54.8 40.55 54.53 38.41 54.53 38.41 54.8 39.06 54.99 39.06 59.17 38.41 59.33 38.41 59.62 40.56 59.62 40.56 59.34 39.9 59.17 39.9 54.99"/><path class="cls-1" d="M44.61,57.17c0-1-.34-1.29-1.07-1.29a1.84,1.84,0,0,0-1.25.69h0l-.16-.69h0l-1,.38v.23l.5.12v2.57l-.47.15v.29h1.72v-.29l-.49-.14V56.83a1.29,1.29,0,0,1,.86-.39c.5,0,.67.3.7.83v1.92l-.43.14v.29h1.68v-.28l-.5-.15Z"/><path class="cls-1" d="M48.89,53.9l-1.47.2v.27l.72.14V56a2.44,2.44,0,0,0-.64-.08A2,2,0,0,0,45.56,58a1.58,1.58,0,0,0,1.54,1.75,1.51,1.51,0,0,0,1.11-.55l.2.53,1.08-.16v-.27l-.6-.15ZM48.14,59a1.07,1.07,0,0,1-.6.18c-.91,0-1.23-.79-1.23-1.58s.46-1.35,1-1.35a1,1,0,0,1,.81.5Z"/><path class="cls-1" d="M53.36,55.92,52,56.06v.29l.6.13v2.38a1.17,1.17,0,0,1-.76.32c-.51,0-.76-.28-.77-.89V55.91L49.78,56v.3l.54.14v1.93c0,.88.39,1.34,1,1.34a1.71,1.71,0,0,0,1.27-.64l.25.62L54,59.56v-.28l-.6-.14Z"/><path class="cls-1" d="M56.16,57.54l-.35-.16c-.46-.2-.61-.38-.61-.67a.53.53,0,0,1,.57-.52.8.8,0,0,1,.52.19l.32.68h.24l0-1a2.17,2.17,0,0,0-1-.24A1.26,1.26,0,0,0,54.49,57c0,.49.25.77.79,1l.34.15c.54.25.71.47.71.76a.57.57,0,0,1-.64.55.91.91,0,0,1-.63-.22l-.39-.86h-.28l.13,1.11a2.19,2.19,0,0,0,1.06.29,1.37,1.37,0,0,0,1.48-1.16C57.06,58.17,56.84,57.83,56.16,57.54Z"/><path class="cls-1" d="M59.25,59.18c-.29,0-.52,0-.52-.64V56.42h1V56h-1V55h-.28l-.43.95-.55.15v.33H58l0,2.46c0,.49.17.87.8.87a2,2,0,0,0,1.07-.36l-.05-.22A4.91,4.91,0,0,1,59.25,59.18Z"/><path class="cls-1" d="M62.4,55.87c-.28,0-.47.19-.75.56l-.29.38h0l-.07-.93h0l-1.11.38v.25l.5.1v2.56l-.47.16v.29h1.91v-.29l-.68-.12v-2.1a2.5,2.5,0,0,1,.51-.49l.64.23a.88.88,0,0,0,.27-.56A.38.38,0,0,0,62.4,55.87Z"/><path class="cls-1" d="M65.45,56.26l.52.17L65,59h0l-.91-2.61.55-.13V56H62.88v.27l.35.13L64.62,60l-.42,1h0a.46.46,0,0,0-.41-.32.4.4,0,0,0-.41.43.49.49,0,0,0,.51.48c.42,0,.61-.31.87-1l1.67-4.21.35-.14V56H65.45Z"/><path class="cls-1" d="M71.37,59.05V57c0-.78-.33-1.16-1.15-1.16s-1.53.57-1.53.95c0,.21.14.34.39.34a1.44,1.44,0,0,0,.34,0l0-.77a.92.92,0,0,1,.45-.13c.43,0,.69.29.71.9v.37l-.8.21c-.78.2-1.23.48-1.23,1.1a.91.91,0,0,0,.94.92c.5,0,.7-.24,1.09-.63h0c0,.34.18.62.59.62a2.42,2.42,0,0,0,.78-.21v-.23h-.36C71.42,59.28,71.37,59.22,71.37,59.05Zm-.76-.24a.79.79,0,0,1-.63.36.56.56,0,0,1-.61-.58c0-.31.21-.46.59-.59l.65-.22Z"/><path class="cls-1" d="M75.91,57.17c0-1-.34-1.29-1.07-1.29a1.84,1.84,0,0,0-1.25.69h0l-.16-.69h0l-1,.38v.23l.51.12v2.57l-.48.15v.29H74.1v-.29l-.5-.14V56.83a1.32,1.32,0,0,1,.86-.39c.5,0,.68.3.7.83v1.92l-.43.14v.29h1.68v-.28l-.5-.15Z"/><path class="cls-1" d="M80.19,53.9l-1.46.2v.27l.71.14V56a2.44,2.44,0,0,0-.64-.08A2,2,0,0,0,76.86,58a1.58,1.58,0,0,0,1.54,1.75,1.5,1.5,0,0,0,1.11-.55l.2.53,1.08-.16v-.27l-.6-.15ZM79.44,59a1.07,1.07,0,0,1-.6.18c-.91,0-1.22-.79-1.22-1.58s.46-1.35,1-1.35a1,1,0,0,1,.81.5Z"/><polygon class="cls-1" points="88.58 54.99 89.23 54.8 89.23 54.53 87.5 54.53 87.46 54.89 86.12 58.17 84.51 54.53 82.83 54.53 82.83 54.8 83.48 54.99 83.46 59.16 82.81 59.34 82.81 59.62 84.77 59.62 84.77 59.34 83.91 59.07 83.92 55.23 85.57 58.92 85.74 59.39 86.04 59.39 86.2 58.91 87.78 55.13 87.75 59.17 87.08 59.33 87.08 59.62 89.25 59.62 89.25 59.34 88.61 59.17 88.58 54.99"/><path class="cls-1" d="M90,54.4a.51.51,0,0,0,.51.51.52.52,0,0,0,.52-.51.53.53,0,0,0-.52-.51A.52.52,0,0,0,90,54.4Z"/><polygon class="cls-1" points="90.95 55.88 89.76 56.12 89.76 56.43 90.21 56.57 90.21 59.17 89.7 59.33 89.7 59.62 91.51 59.62 91.51 59.33 90.95 59.18 90.95 55.88"/><path class="cls-1" d="M95.45,57.17c0-1-.34-1.29-1.07-1.29a1.84,1.84,0,0,0-1.25.69h0L93,55.88h0l-1,.38v.23l.51.12v2.57l-.48.15v.29h1.73v-.29l-.5-.14V56.83a1.32,1.32,0,0,1,.86-.39c.5,0,.68.3.7.83v1.92l-.43.14v.29H96v-.28l-.5-.15Z"/><path class="cls-1" d="M98.44,59.11c-.78,0-1.33-.57-1.33-1.55h2.53c0-1.05-.5-1.68-1.4-1.68a1.9,1.9,0,0,0-1.83,2.06,1.68,1.68,0,0,0,3.24.74l-.15-.11A1.48,1.48,0,0,1,98.44,59.11Zm-.37-2.86c.49,0,.71.46.72,1H97.14A1,1,0,0,1,98.07,56.25Z"/><path class="cls-1" d="M102.5,55.87c-.29,0-.48.19-.75.56l-.29.38h0l-.08-.93h0l-1.11.38v.25l.51.1v2.56l-.47.16v.29h1.91v-.29l-.69-.12v-2.1a2.78,2.78,0,0,1,.52-.49l.63.23a.84.84,0,0,0,.28-.56A.38.38,0,0,0,102.5,55.87Z"/><path class="cls-1" d="M106,59.05V57c0-.78-.33-1.16-1.15-1.16s-1.53.57-1.53.95c0,.21.14.34.39.34a1.62,1.62,0,0,0,.34,0l0-.77a.92.92,0,0,1,.45-.13c.42,0,.69.29.71.9v.37l-.8.21c-.78.2-1.23.48-1.23,1.1a.91.91,0,0,0,.94.92c.5,0,.7-.24,1.09-.63h0c0,.34.18.62.59.62a2.42,2.42,0,0,0,.78-.21v-.23h-.36C106.06,59.28,106,59.22,106,59.05Zm-.76-.24a.79.79,0,0,1-.63.36.56.56,0,0,1-.61-.58c0-.31.21-.46.59-.59l.65-.22Z"/><polygon class="cls-1" points="108.22 53.9 106.97 54.16 106.97 54.43 107.47 54.57 107.47 59.18 106.98 59.33 106.98 59.62 108.74 59.62 108.74 59.33 108.22 59.19 108.22 53.9"/><path class="cls-1" d="M113.69,57.1h0a1.41,1.41,0,0,0,1.13-1.31c0-.81-.75-1.3-2.19-1.28l-1.85,0v.27l.65.19v4.18l-.65.16v.29h2.12v-.28l-.63-.17V57.35l.62,0,.32.5,1.27,1.8h1.32v-.28l-.66-.16Zm-.83-.08h-.59V54.8c1.07,0,1.67.42,1.67,1.15A1.12,1.12,0,0,1,112.86,57Z"/><path class="cls-1" d="M117.88,59.11c-.78,0-1.33-.57-1.33-1.55h2.53c0-1.05-.5-1.68-1.4-1.68a1.91,1.91,0,0,0-1.84,2.06,1.69,1.69,0,0,0,3.25.74l-.15-.11A1.48,1.48,0,0,1,117.88,59.11Zm-.37-2.86c.49,0,.71.46.72,1h-1.65A1,1,0,0,1,117.51,56.25Z"/><path class="cls-1" d="M121.51,57.54l-.35-.16c-.46-.2-.6-.38-.6-.67a.52.52,0,0,1,.56-.52.85.85,0,0,1,.53.19l.31.68h.25l0-1a2.2,2.2,0,0,0-1-.24,1.25,1.25,0,0,0-1.36,1.1c0,.49.24.77.79,1l.33.15c.55.25.72.47.72.76a.58.58,0,0,1-.65.55.86.86,0,0,1-.62-.22l-.4-.86h-.28l.13,1.11a2.19,2.19,0,0,0,1.06.29,1.36,1.36,0,0,0,1.48-1.16C122.41,58.17,122.19,57.83,121.51,57.54Z"/><path class="cls-1" d="M124.86,55.87a1.9,1.9,0,0,0-1.82,2,1.75,1.75,0,0,0,1.82,1.87,1.89,1.89,0,0,0,1.82-2A1.71,1.71,0,0,0,124.86,55.87Zm.11,3.51c-.76,0-1.11-.88-1.13-1.73s.33-1.41.92-1.42,1.09.62,1.11,1.71C125.89,58.75,125.54,59.37,125,59.38Z"/><path class="cls-1" d="M130.62,55.92l-1.37.14v.29l.61.13v2.38a1.2,1.2,0,0,1-.76.32c-.51,0-.76-.28-.77-.89V55.91L127,56v.3l.53.14v1.93c0,.88.4,1.34,1.05,1.34a1.71,1.71,0,0,0,1.27-.64l.24.62,1.09-.17v-.28l-.6-.14Z"/><path class="cls-1" d="M133.76,55.87c-.28,0-.47.19-.75.56l-.29.38h0l-.07-.93h0l-1.11.38v.25l.51.1v2.56l-.48.16v.29h1.91v-.29l-.68-.12v-2.1a2.5,2.5,0,0,1,.51-.49l.64.23a.88.88,0,0,0,.27-.56A.38.38,0,0,0,133.76,55.87Z"/><path class="cls-1" d="M136.49,59.14a1.41,1.41,0,0,1-1.3-1.55c0-.75.43-1.36,1.05-1.36a.64.64,0,0,1,.43.12l.11.75a2.33,2.33,0,0,0,.29,0,.42.42,0,0,0,.43-.45c0-.43-.47-.79-1.13-.79a2,2,0,0,0-1.94,2.06,1.65,1.65,0,0,0,1.66,1.8,1.6,1.6,0,0,0,1.44-.94l-.16-.12A1.23,1.23,0,0,1,136.49,59.14Z"/><path class="cls-1" d="M140.05,59.11c-.79,0-1.33-.57-1.33-1.55h2.52c0-1.05-.5-1.68-1.39-1.68A1.91,1.91,0,0,0,138,57.94a1.7,1.7,0,0,0,1.7,1.8,1.74,1.74,0,0,0,1.55-1.06l-.16-.11A1.45,1.45,0,0,1,140.05,59.11Zm-.38-2.86c.5,0,.72.46.73,1h-1.65A1,1,0,0,1,139.67,56.25Z"/><path class="cls-1" d="M143.68,57.54l-.35-.16c-.46-.2-.6-.38-.6-.67a.52.52,0,0,1,.56-.52.8.8,0,0,1,.52.19l.32.68h.24l0-1a2.16,2.16,0,0,0-1-.24A1.26,1.26,0,0,0,142,57c0,.49.25.77.79,1l.34.15c.54.25.71.47.71.76a.57.57,0,0,1-.64.55.91.91,0,0,1-.63-.22l-.39-.86h-.28l.13,1.11a2.19,2.19,0,0,0,1.06.29,1.37,1.37,0,0,0,1.48-1.16C144.58,58.17,144.36,57.83,143.68,57.54Z"/><path class="cls-2" d="M164.31,21.48a.07.07,0,0,1,0,.05v0S164.31,21.51,164.31,21.48Z"/><path class="cls-3" d="M225.53,31.78l0,0"/><path class="cls-3" d="M225.53,31.78l0,0"/><path class="cls-4" d="M209.53,65.37c.22-.06.46-.14.69-.22Z"/><path class="cls-5" d="M231.12,36.06c-.31,4.57-2.22,12.89-4.72,16.84-2.14,3.36-9.24,9.5-15.24,11.91l-.06,0h0l0,0-.05,0-.06,0C208,66,204.35,64.3,202.25,63l-.08,0c-.37-.22-.69-.43-.95-.61-.44-.3-.69-.49-.69-.49-.58-.43-1.15-.87-1.7-1.34l-.44-.38c-.18-.14-.36-.3-.53-.45l-.78-.71-.78-.73-.83-.79-1.2-1.19c9-1.95,23.12-7.52,31-13.22,3.29-2.37,5.5-4.76,5.81-6.91C231.11,36.13,231.11,36.09,231.12,36.06Z"/><path class="cls-4" d="M231.09,36v.06s0,.08,0,.12Z"/><path class="cls-6" d="M210.92,64.91c-.17.06-.39.15-.67.24l-.69.22a4.77,4.77,0,0,1-.54.15l-.25.06-.26.06-.3,0a2.63,2.63,0,0,1-.39.06c-4.58.5-17.41-1.42-25.35-5.09l-.34-.16-.35-.17a18.11,18.11,0,0,1-5.55-4.3c-5.48-6.82-12.11-23.32-12-32.78v0a9.79,9.79,0,0,1,1.43-4.39l.1-.15c.06-.11.13-.21.2-.32a19.86,19.86,0,0,1,5.7-5.58c2.57,12.72,11,31.71,22.62,43.52.4.4.8.8,1.21,1.19s1.06,1,1.6,1.52l.78.71c.18.15.35.31.53.45l.44.38c.56.47,1.13.91,1.7,1.34,0,0,.25.19.69.49.26.18.58.39,1,.61a.18.18,0,0,0,.07,0C204.35,64.3,208,66,210.92,64.91Z"/><path class="cls-7" d="M164.29,21.58c-.06.51-.08,1-.1,1.36C164.2,22.56,164.23,22.09,164.29,21.58Z"/><path class="cls-8" d="M164.18,23.11s0,.07,0,.11v-.11Z"/><path class="cls-9" d="M164.3,21.55v0Z"/><path class="cls-10" d="M231.09,36v.06s0,.08,0,.12Z"/><path class="cls-11" d="M231.09,36.05V36l0,.18c-.31,2.15-2.52,4.54-5.81,6.91a59.87,59.87,0,0,1-14.85-8c-12.35-8.93-20.28-23.77-30.66-24.53a13.36,13.36,0,0,0-8.13,2.25,19.73,19.73,0,0,0-5.7,5.58c-.07.11-.14.21-.2.32l-.1.14a9.82,9.82,0,0,0-1.43,4.4s0-.07,0-.11,0-.11,0-.17c0-.38,0-.85.1-1.36v0a.07.07,0,0,0,0-.05c0-.06,0-.13,0-.19v0c1.47-10,11.94-21.49,20.43-21.26,10.29.28,19.09,12.54,27.08,19.92,6.85,6.32,12.38,9,15.86,11.26h0c2.25,1.44,3.5,2.73,3.37,4.8Z"/></svg>