<svg xmlns="http://www.w3.org/2000/svg" xmlns:xlink="http://www.w3.org/1999/xlink" width="76" height="61.037" viewBox="0 0 76 61.037"><defs><style>.a{fill:url(#a);}.b{fill:none;stroke:#231f20;stroke-miterlimit:10;stroke-width:5px;}.c{fill:url(#j);}.d{fill:url(#k);}.e{fill:#fff;}</style><linearGradient id="a" x1="0.5" y1="1" x2="0.5" gradientUnits="objectBoundingBox"><stop offset="0" stop-color="#004c8c"/><stop offset="1" stop-color="#5cddff"/></linearGradient><linearGradient id="j" x1="0.5" y1="1" x2="0.5" gradientUnits="objectBoundingBox"><stop offset="0" stop-color="#5cddff"/><stop offset="1" stop-color="#004c8c"/></linearGradient><linearGradient id="k" x1="0.5" y1="1" x2="0.5" y2="0" xlink:href="#j"/></defs><g transform="translate(-174.246 -100.564)"><g transform="translate(174.246 121.342)"><path class="a" d="M175.383,256.555h1.525a.5.5,0,0,0,.5-.435l1.317-9.765,4.933,9.922a.5.5,0,0,0,.45.279h.405a.5.5,0,0,0,.451-.28l4.861-9.843,1.324,9.689a.5.5,0,0,0,.5.434h1.567a.5.5,0,0,0,.5-.574l-2.282-15.814a.5.5,0,0,0-.5-.431h-.256a.5.5,0,0,0-.451.281l-5.907,12.051-5.977-12.053a.5.5,0,0,0-.45-.279h-.256a.5.5,0,0,0-.5.432l-2.25,15.814a.5.5,0,0,0,.5.573Z" transform="translate(-174.783 -239.075)"/><path class="a" d="M312.083,276.145a7,7,0,0,0,2.492-.422,6.3,6.3,0,0,0,2-1.233,7.1,7.1,0,0,0,1.541-2.122.5.5,0,0,0-.214-.666l-1.258-.672a.5.5,0,0,0-.667.184,6.6,6.6,0,0,1-1.183,1.543,4.179,4.179,0,0,1-1.281.736,4.454,4.454,0,0,1-1.562.283,3.623,3.623,0,0,1-2.741-1.152,4.106,4.106,0,0,1-1.128-2.5h9.969a.5.5,0,0,0,.5-.5,6.78,6.78,0,0,0-1.388-4.3,6.27,6.27,0,0,0-5.161-2.463,6.078,6.078,0,0,0-5.034,2.41,6.9,6.9,0,0,0,.26,8.833A6.083,6.083,0,0,0,312.083,276.145ZM313.8,265.7a3.692,3.692,0,0,1,1.345,1.021,3.853,3.853,0,0,1,.592,1.108h-7.329a4.015,4.015,0,0,1,.992-1.544,3.756,3.756,0,0,1,2.618-.98A4.193,4.193,0,0,1,313.8,265.7Z" transform="translate(-285.283 -258.633)"/><path class="a" d="M407.081,252.956a7.134,7.134,0,0,0,2.883-.592,7.254,7.254,0,0,0,2.482-1.859.486.486,0,0,0,.056-.076,8.586,8.586,0,0,0,1.219-3.342.5.5,0,0,0,0-.062V235.947a.5.5,0,0,0-.5-.5H411.73a.5.5,0,0,0-.5.5v5.28a6.158,6.158,0,0,0-4.189-1.559,6.214,6.214,0,0,0-4.593,1.954,6.54,6.54,0,0,0-1.9,4.723,6.434,6.434,0,0,0,1.915,4.672A6.291,6.291,0,0,0,407.081,252.956Zm-1.928-10.364a4,4,0,0,1,2.035-.556,4.24,4.24,0,0,1,2.1.559,3.822,3.822,0,0,1,1.514,1.5,4.359,4.359,0,0,1,.534,2.149,4.136,4.136,0,0,1-1.2,3.049,3.914,3.914,0,0,1-2.926,1.215,4.037,4.037,0,0,1-2.075-.555,4.123,4.123,0,0,1-1.508-1.548,4.243,4.243,0,0,1-.564-2.119,4.322,4.322,0,0,1,.571-2.128A4.089,4.089,0,0,1,405.153,242.592Z" transform="translate(-365.683 -235.444)"/><path class="a" d="M183.931,361.751v-1.536a.5.5,0,0,0-.5-.5h-8.68a.5.5,0,0,0-.5.5v1.536a.5.5,0,0,0,.5.5h3.027v13.776a.5.5,0,0,0,.5.5h1.61a.5.5,0,0,0,.5-.5V362.254h3.038A.5.5,0,0,0,183.931,361.751Z" transform="translate(-174.246 -340.57)"/><path class="a" d="M236.313,385.279a.5.5,0,0,0-.236-.312,3.176,3.176,0,0,0-1.573-.472,4.446,4.446,0,0,0-2.372.94,6.238,6.238,0,0,0-2.182,2.9,6.848,6.848,0,0,0-.527,1.841.52.52,0,0,0-.006.08v6.739a.5.5,0,0,0,.5.5h1.536a.5.5,0,0,0,.5-.5v-3.956a16.248,16.248,0,0,1,.251-3.563,4.7,4.7,0,0,1,1.223-1.867,1.6,1.6,0,0,1,1.07-.544,1.076,1.076,0,0,1,.374.069.5.5,0,0,0,.6-.207l.778-1.258A.5.5,0,0,0,236.313,385.279Z" transform="translate(-220.917 -361.533)"/><path class="a" d="M276.432,382.832a6.3,6.3,0,0,0-4.852,2.129,6.778,6.778,0,0,0,.1,9.171,6.674,6.674,0,0,0,9.506,0,6.577,6.577,0,0,0,1.841-4.613,6.643,6.643,0,0,0-1.742-4.572A6.315,6.315,0,0,0,276.432,382.832Zm2.049,10.34a4.224,4.224,0,0,1-4.084,0,3.823,3.823,0,0,1-1.467-1.5,4.332,4.332,0,0,1-.55-2.129,4.115,4.115,0,0,1,1.2-3,3.906,3.906,0,0,1,5.7,0,4.115,4.115,0,0,1,1.2,3,4.366,4.366,0,0,1-.545,2.13A3.75,3.75,0,0,1,278.482,393.172Z" transform="translate(-255.115 -360.127)"/><path class="a" d="M369.813,382.832a6.3,6.3,0,0,0-4.852,2.129,6.778,6.778,0,0,0,.1,9.171,6.674,6.674,0,0,0,9.506,0,6.784,6.784,0,0,0,.1-9.186A6.315,6.315,0,0,0,369.813,382.832Zm2.049,10.34a4.224,4.224,0,0,1-4.084,0,3.824,3.824,0,0,1-1.466-1.5,4.331,4.331,0,0,1-.55-2.129,4.115,4.115,0,0,1,1.2-3,3.906,3.906,0,0,1,5.7,0,4.115,4.115,0,0,1,1.2,3,4.365,4.365,0,0,1-.545,2.13A3.749,3.749,0,0,1,371.863,393.172Z" transform="translate(-334.111 -360.127)"/><path class="a" d="M465.532,383.11a7.135,7.135,0,0,0-2.884.591,5.9,5.9,0,0,0-2.511,1.9,6.911,6.911,0,0,0-1.246,3.382.486.486,0,0,0,0,.062v11.079a.5.5,0,0,0,.5.5h1.492a.5.5,0,0,0,.5-.5V394.84a6.159,6.159,0,0,0,4.189,1.559,6.214,6.214,0,0,0,4.593-1.953,6.54,6.54,0,0,0,1.9-4.723,6.433,6.433,0,0,0-1.915-4.672A6.29,6.29,0,0,0,465.532,383.11Zm1.928,10.364a4,4,0,0,1-2.035.556,4.238,4.238,0,0,1-2.1-.559,3.818,3.818,0,0,1-1.514-1.5,4.354,4.354,0,0,1-.534-2.149,4.135,4.135,0,0,1,1.2-3.049,3.914,3.914,0,0,1,2.926-1.215,4.037,4.037,0,0,1,2.075.555,4.128,4.128,0,0,1,1.508,1.547,4.249,4.249,0,0,1,.564,2.12,4.326,4.326,0,0,1-.571,2.128A4.088,4.088,0,0,1,467.459,393.474Z" transform="translate(-415.039 -360.363)"/><path class="a" d="M557.7,390.053a6.962,6.962,0,0,0-2.458-1.823A5.058,5.058,0,0,1,553.6,387.1a1.136,1.136,0,0,1-.317-.74,1,1,0,0,1,.36-.771,1.3,1.3,0,0,1,.918-.347,3.045,3.045,0,0,1,2.008,1.032.5.5,0,0,0,.349.141h.01a.5.5,0,0,0,.353-.155l.96-1a.5.5,0,0,0-.015-.71,5.278,5.278,0,0,0-3.6-1.719,3.663,3.663,0,0,0-2.637,1.021,3.444,3.444,0,0,0-1.065,2.574,3.49,3.49,0,0,0,.666,2.1,6.152,6.152,0,0,0,2.336,1.77,5.979,5.979,0,0,1,1.731,1.132,1.255,1.255,0,0,1,.3.831,1.3,1.3,0,0,1-.471.989,1.684,1.684,0,0,1-1.191.449,2.79,2.79,0,0,1-2.066-1.131.5.5,0,0,0-.376-.169h0a.5.5,0,0,0-.377.17l-.949,1.077a.5.5,0,0,0-.022.638,4.557,4.557,0,0,0,1.705,1.36,5.03,5.03,0,0,0,2.148.479,3.942,3.942,0,0,0,2.876-1.142,3.785,3.785,0,0,0,1.156-2.783A3.611,3.611,0,0,0,557.7,390.053Z" transform="translate(-492.453 -360.127)"/></g><path class="b" d="M594.972,418.218" transform="translate(-355.915 -268.72)"/><g transform="translate(224.855 100.564)"><g transform="translate(0.336 0)"><path class="c" d="M573.736,204.83l.372.913a4.311,4.311,0,0,1,2.556,0l.368-.914A7.66,7.66,0,0,1,573.736,204.83Z" transform="translate(-563.141 -188.766)"/><path class="d" d="M575.725,198.2a1.873,1.873,0,0,0-1.512-.368.873.873,0,0,1-.458.013,1.85,1.85,0,0,0-1.541.34c-.06.035-.092.119-.161.215h3.813C575.8,198.3,575.778,198.227,575.725,198.2Z" transform="translate(-561.717 -182.802)"/><path class="c" d="M576.319,186.389a5.557,5.557,0,0,0,.668.1,5.933,5.933,0,0,0,.771,0,5.033,5.033,0,0,0,.643-.1.319.319,0,0,0,.2-.11.737.737,0,0,0-.288-.844c-.038.413-.383.64-.964.635s-.909-.228-.94-.633a.73.73,0,0,0-.28.862A.313.313,0,0,0,576.319,186.389Z" transform="translate(-565.119 -172.359)"/><path class="c" d="M525.9,110.44a15,15,0,0,1-.324-1.487,9.18,9.18,0,0,0-2.482-5.761,7.861,7.861,0,0,0-10.312-1.241,9.1,9.1,0,0,0-3.95,6.92,4.63,4.63,0,0,1-.2,1.1,1.8,1.8,0,0,0,.7,2.286,2.376,2.376,0,0,0,.656.417,1.527,1.527,0,0,1,1.085,1.415,3.714,3.714,0,0,0,.975,2.193.239.239,0,0,1,.06.133q.087.867.166,1.734a.367.367,0,0,1,.1.254l-.033,3.39,6.013,9.545L522,121.765l.043-3.367a.367.367,0,0,1,.093-.244s0,0,0,0c.055-.518.1-1.033.163-1.55a.946.946,0,0,1,.178-.447,3.289,3.289,0,0,0,.749-1.543c.073-.43.219-.844.314-1.269a.531.531,0,0,1,.3-.364,12.385,12.385,0,0,0,1.52-.97A1.568,1.568,0,0,0,525.9,110.44Zm-8.915-8.97a7.445,7.445,0,0,1,6.448,3.332,8.733,8.733,0,0,0-12.44.015C511.85,103.1,514.523,101.543,516.98,101.47Zm3.89,18.4c-.038.392-.065.787-.128,1.173a.575.575,0,0,1-.214.344,14.122,14.122,0,0,1-3.178,1.555.465.465,0,0,1-.309,0,15.493,15.493,0,0,1-3.123-1.508.543.543,0,0,1-.271-.425c-.1-1.075-.206-2.151-.314-3.226a5.694,5.694,0,0,1,1.412,1.839c.266.631.6,1.234.915,1.88V119.81a11.359,11.359,0,0,0,3.091,0v1.643c.693-1.254,1.118-2.7,2.322-3.706C521,118.473,520.938,119.171,520.87,119.867Zm.807-6.543c-.251.377-.53.736-.786,1.108a1.045,1.045,0,0,0-.153.352,22.736,22.736,0,0,1-.523,2.377,3.458,3.458,0,0,1-.839,1.229,1.346,1.346,0,0,1-.837.342c-.887.043-1.776.035-2.664.008a1.568,1.568,0,0,1-1.171-.686,5.424,5.424,0,0,1-.972-2.865,1.8,1.8,0,0,0-.425-1.033,6.088,6.088,0,0,1-.621-.915,3.231,3.231,0,0,1-.2-.45,12.978,12.978,0,0,1,3.7-.513c.028.266.05.5.08.806.043-.1.066-.156.085-.211.121-.329.239-.661.362-.99a.523.523,0,0,1,.975-.008c.146.382.289.766.45,1.193.028-.281.053-.52.08-.791a13.029,13.029,0,0,1,3.7.513A3.885,3.885,0,0,1,521.677,113.325Zm-.367-4.2c-1.126,0-2.251.08-3.377.083-1.166,0-2.334-.045-3.5-.078a11.135,11.135,0,0,0-3.425.279,6.236,6.236,0,0,0-1.709.812,1.476,1.476,0,0,1,.106-.141,4.268,4.268,0,0,1,2.817-1.359c.967-.1,1.945-.083,2.917-.09,1.377-.015,2.754.01,4.131-.008a12.224,12.224,0,0,1,3.8.281,3.849,3.849,0,0,1,2.023,1.329A6.164,6.164,0,0,0,521.31,109.124Zm3.968,16.3a.847.847,0,0,0-.538-.362.96.96,0,0,0-.169-.015.846.846,0,0,0-.166,1.676.852.852,0,0,0,1-.663A.837.837,0,0,0,525.277,125.428Zm2.837-2.935-1.792-1.148a.094.094,0,0,0-.018-.023c-.271-.191-.558-.359-.837-.528a7.934,7.934,0,0,1-.143,3.688,1.6,1.6,0,0,1,.817,1.729,1.6,1.6,0,0,1-1.568,1.286,1.506,1.506,0,0,1-.317-.033,1.6,1.6,0,0,1-.57-2.9,1.582,1.582,0,0,1,.9-.266,6.992,6.992,0,0,0,.068-3.613l-.015.013a2.6,2.6,0,0,0-.61-.895,4.113,4.113,0,0,0-1.249-.827l-.035,2.864a.452.452,0,0,1-.025.131L516.5,138.318c-.125-.04-.249-.078-.372-.108s-.241-.055-.362-.085l2.254-5.91a.389.389,0,0,1-.04-.05L511.639,122.1a.358.358,0,0,1-.058-.206l.028-2.91-.108.055-.01.005c-.166.088-.364.206-.58.344l-.834.492c-.548,1-1.6,3.365-.55,5.458.284-.133.683-.073.987.485l.274.495a3.2,3.2,0,0,1,3.626,1.452l.226.412-.394.216,1.4,2.576a1.128,1.128,0,0,1-.279,1.412.676.676,0,1,1-.236-.395.678.678,0,0,0,.12-.8l-1.4-2.573-.395.216-.229-.417a1.793,1.793,0,0,0-1.947-.849,2.054,2.054,0,0,0-1.086.6,1.79,1.79,0,0,0-.324,2.1l.231.417-.593.327,1.41,2.568a.679.679,0,0,0,.751.327.683.683,0,1,1,.209.407,1.124,1.124,0,0,1-1.354-.518l-1.41-2.568-.394.219-.226-.412a3.192,3.192,0,0,1,.716-3.839l-.274-.5a.831.831,0,0,1-.043-.937,6.14,6.14,0,0,1,.015-5.179l-2.38,1.41-1.565.925,2.284,10.719,10.38,6.9,7.241-4.362L528.3,132.2l.731-9.116Zm-6.133,6.895H526.2a.5.5,0,1,1,0,1h-4.216a.5.5,0,1,1,0-1Zm3.3-3.96a.847.847,0,0,0-.538-.362.96.96,0,0,0-.169-.015.846.846,0,0,0-.166,1.676.852.852,0,0,0,1-.663A.837.837,0,0,0,525.277,125.428Zm0,0a.847.847,0,0,0-.538-.362.96.96,0,0,0-.169-.015.846.846,0,0,0-.166,1.676.852.852,0,0,0,1-.663A.837.837,0,0,0,525.277,125.428ZM514.9,132.411a.225.225,0,0,0-.394.219.225.225,0,1,0,.394-.219Zm-.884-4.417a2.763,2.763,0,0,0-3.279-1.191,3.205,3.205,0,0,0-.854.417,2.65,2.65,0,0,0-.251.191,2.762,2.762,0,0,0-.749,3.4l.008.015.593-.324-.012-.022a2.241,2.241,0,0,1,.392-2.623,2.511,2.511,0,0,1,1.327-.729,2.234,2.234,0,0,1,2.427,1.073l.013.022.394-.219Zm-1.483,5.721a.225.225,0,0,0-.307-.09.225.225,0,1,0,.216.395A.224.224,0,0,0,512.536,133.715Zm-2.417-7.671c-.065-.118-.239-.384-.415-.286l-.395.219c-.178.1-.045.384.018.5l.231.42a.531.531,0,0,1,.045-.03c.02-.015.038-.028.058-.04.088-.058.178-.116.274-.168l.01-.005c.1-.053.191-.1.289-.141a.516.516,0,0,1,.065-.028l.048-.023Z" transform="translate(-504.96 -100.564)"/></g><g transform="translate(10.98 37.56)"><path class="e" d="M574.577,344.471c.123.03.246.068.372.108l-.163.427a.373.373,0,0,1-.352.244.349.349,0,0,1-.133-.025.378.378,0,0,1-.219-.488l.133-.352C574.336,344.416,574.456,344.444,574.577,344.471Z" transform="translate(-574.058 -344.386)"/></g><path class="a" d="M528.149,199.956a12.71,12.71,0,0,1-.761,3.8,12.97,12.97,0,0,1-3.276,5.073,12.362,12.362,0,0,1-3.761,2.49q-2.348,1.01-4.706,2a.48.48,0,0,1-.324,0c-1.593-.671-3.189-1.337-4.772-2.03a12.763,12.763,0,0,1-6.342-6.023,14.713,14.713,0,0,1-.92-2.442,14.033,14.033,0,0,1-.505-4.384q.049-5.318.075-10.641a.3.3,0,0,1,.241-.334,30.276,30.276,0,0,1,5.447-1.344c-.04.07-.07.121-.1.173-.359.606-.724,1.209-1.073,1.819a.393.393,0,0,1-.292.229c-.784.183-1.563.382-2.365.583,0,.874,0,1.714,0,2.555-.005.96-.02,1.922-.033,2.885-.023,1.671-.043,3.339.005,5.008.128,4.43,2.845,9.74,10.754,11.518.219.049,7.442-1.628,9.681-6.568a12.14,12.14,0,0,0,1.176-5.176q-.015-2.137-.028-4.276-.019-2.83-.038-5.661v-.289c-.789-.2-1.568-.394-2.352-.578a.4.4,0,0,1-.292-.229c-.364-.668-.744-1.329-1.113-1.982a30.145,30.145,0,0,1,3.93.864c.5.148.987.329,1.485.48a.257.257,0,0,1,.214.3q.023,4.564.055,9.131C528.164,197.921,528.186,198.941,528.149,199.956Z" transform="translate(-502.779 -172.942)"/></g></g></svg>