<svg id="Layer_1" data-name="Layer 1" xmlns="http://www.w3.org/2000/svg" xmlns:xlink="http://www.w3.org/1999/xlink" viewBox="0 0 231.56 65.83"><defs><style>.cls-1{fill:#1e1e1c;}.cls-2{fill:#404040;}.cls-3{fill:none;}.cls-4{fill:#9e9b9c;}.cls-5{fill:url(#linear-gradient);}.cls-6{fill:url(#linear-gradient-2);}.cls-7{fill:url(#linear-gradient-3);}.cls-8{fill:url(#linear-gradient-4);}.cls-9{fill:url(#linear-gradient-5);}.cls-10{fill:url(#linear-gradient-6);}.cls-11{fill:url(#linear-gradient-7);}</style><linearGradient id="linear-gradient" x1="-27.87" y1="-57.77" x2="-118.36" y2="-54.57" gradientTransform="translate(118.68 110.46) rotate(3)" gradientUnits="userSpaceOnUse"><stop offset="0.13" stop-color="#ddd9d7"/><stop offset="0.16" stop-color="#cecbc9"/><stop offset="0.24" stop-color="#a7a7a6"/><stop offset="0.25" stop-color="#a2a2a1"/><stop offset="0.28" stop-color="#a9a9a9"/><stop offset="0.32" stop-color="#bbb"/><stop offset="0.35" stop-color="#acacac"/><stop offset="0.42" stop-color="#848585"/><stop offset="0.42" stop-color="#808181"/><stop offset="0.48" stop-color="#8d8e8e"/><stop offset="0.6" stop-color="#b1b1b1"/><stop offset="0.7" stop-color="#d6d6d6"/><stop offset="0.72" stop-color="#cccdcd"/><stop offset="0.77" stop-color="#b2b4b4"/><stop offset="0.83" stop-color="#878b8c"/><stop offset="0.9" stop-color="#4d5455"/><stop offset="0.92" stop-color="#707475"/><stop offset="0.96" stop-color="#9fa1a1"/><stop offset="0.98" stop-color="#bdbdbd"/><stop offset="1" stop-color="#c8c7c7"/></linearGradient><linearGradient id="linear-gradient-2" x1="-117.87" y1="-94.76" x2="-30.35" y2="75.89" gradientTransform="translate(118.68 110.46) rotate(3)" gradientUnits="userSpaceOnUse"><stop offset="0.03" stop-color="#4e4d4d"/><stop offset="0.04" stop-color="#636363"/><stop offset="0.06" stop-color="#737474"/><stop offset="0.08" stop-color="#7f7f80"/><stop offset="0.11" stop-color="#858687"/><stop offset="0.18" stop-color="#878889"/><stop offset="0.35" stop-color="#4e4d4d"/><stop offset="0.39" stop-color="#6b6a6a"/><stop offset="0.45" stop-color="#888787"/><stop offset="0.51" stop-color="#9f9e9e"/><stop offset="0.58" stop-color="#b2b1b1"/><stop offset="0.66" stop-color="#bebdbd"/><stop offset="0.77" stop-color="#c6c5c5"/><stop offset="1" stop-color="#c8c7c7"/></linearGradient><linearGradient id="linear-gradient-3" x1="-64.62" y1="-51.48" x2="-137.59" y2="-89.42" gradientTransform="translate(118.68 110.46) rotate(3)" gradientUnits="userSpaceOnUse"><stop offset="0" stop-color="#ddd9d7"/><stop offset="0.04" stop-color="#b3b2b1"/><stop offset="0.12" stop-color="#6a6f6f"/><stop offset="0.16" stop-color="#4d5455"/><stop offset="0.73" stop-color="#7d8386"/><stop offset="0.82" stop-color="#868b8f"/><stop offset="0.84" stop-color="#8b9093"/><stop offset="0.86" stop-color="#9a9da0"/><stop offset="0.88" stop-color="#b3b4b5"/><stop offset="0.9" stop-color="#c8c7c7"/></linearGradient><linearGradient id="linear-gradient-4" x1="-69.07" y1="-52.8" x2="-142.04" y2="-90.75" gradientTransform="translate(118.68 110.46) rotate(3)" gradientUnits="userSpaceOnUse"><stop offset="0" stop-color="#ddd9d7"/><stop offset="0.04" stop-color="#b3b2b1"/><stop offset="0.12" stop-color="#6a6f6f"/><stop offset="0.16" stop-color="#4d5455"/><stop offset="0.3" stop-color="#767c7c"/><stop offset="0.59" stop-color="#d6d7d7"/><stop offset="0.67" stop-color="#d4d5d5"/><stop offset="0.71" stop-color="#cbcdcd"/><stop offset="0.75" stop-color="#bdc0c1"/><stop offset="0.78" stop-color="#aaadaf"/><stop offset="0.81" stop-color="#909598"/><stop offset="0.82" stop-color="#868b8f"/><stop offset="0.84" stop-color="#8b9093"/><stop offset="0.86" stop-color="#9a9da0"/><stop offset="0.88" stop-color="#b3b4b5"/><stop offset="0.9" stop-color="#c8c7c7"/><stop offset="0.92" stop-color="#c3c2c3"/><stop offset="0.95" stop-color="#b4b4b6"/><stop offset="0.98" stop-color="#9b9ea0"/><stop offset="1" stop-color="#868b8f"/></linearGradient><linearGradient id="linear-gradient-5" x1="-68.38" y1="-54.14" x2="-141.35" y2="-92.08" xlink:href="#linear-gradient-4"/><linearGradient id="linear-gradient-6" x1="-58.52" y1="-73.09" x2="-131.49" y2="-111.03" xlink:href="#linear-gradient-4"/><linearGradient id="linear-gradient-7" x1="-58.86" y1="-62.21" x2="-144.07" y2="-112.55" gradientTransform="translate(118.68 110.46) rotate(3)" gradientUnits="userSpaceOnUse"><stop offset="0.03" stop-color="#676767"/><stop offset="0.09" stop-color="#7e7e7d"/><stop offset="0.16" stop-color="#929291"/><stop offset="0.23" stop-color="#9e9e9d"/><stop offset="0.29" stop-color="#a2a2a1"/><stop offset="0.35" stop-color="#9a9a99"/><stop offset="0.44" stop-color="#838383"/><stop offset="0.52" stop-color="#676767"/><stop offset="0.53" stop-color="#6d6d6d"/><stop offset="0.59" stop-color="#979797"/><stop offset="0.64" stop-color="#b1b1b1"/><stop offset="0.67" stop-color="#bbb"/><stop offset="0.71" stop-color="#b9b9b9"/><stop offset="0.73" stop-color="#b2b3b4"/><stop offset="0.74" stop-color="#a6a8aa"/><stop offset="0.75" stop-color="#95999c"/><stop offset="0.76" stop-color="#868b8f"/><stop offset="0.79" stop-color="#8b9093"/><stop offset="0.83" stop-color="#9a9da0"/><stop offset="0.87" stop-color="#b3b4b5"/><stop offset="0.9" stop-color="#c8c7c7"/><stop offset="0.92" stop-color="#c3c2c3"/><stop offset="0.95" stop-color="#b4b4b6"/><stop offset="0.98" stop-color="#9b9ea0"/><stop offset="1" stop-color="#868b8f"/></linearGradient></defs><polygon class="cls-1" points="98.52 17.49 99.86 17.11 99.86 16.54 96.25 16.54 96.17 17.29 93.37 24.15 90.01 16.54 86.5 16.54 86.5 17.11 87.86 17.49 87.81 26.22 86.45 26.59 86.45 27.17 90.56 27.17 90.56 26.59 88.75 26.02 88.77 17.99 92.23 25.7 92.58 26.68 93.2 26.68 93.54 25.68 96.83 17.79 96.78 26.23 95.38 26.57 95.38 27.17 99.91 27.17 99.91 26.59 98.57 26.23 98.52 17.49"/><polygon class="cls-1" points="103.47 19.36 100.97 19.86 100.97 20.49 101.91 20.8 101.91 26.23 100.86 26.57 100.86 27.17 104.63 27.17 104.63 26.57 103.47 26.25 103.47 19.36"/><path class="cls-1" d="M103.69,16.26a1.08,1.08,0,0,0-2.16,0,1.07,1.07,0,0,0,1.08,1.06A1.08,1.08,0,0,0,103.69,16.26Z"/><path class="cls-1" d="M112.88,22.05c0-2-.71-2.69-2.24-2.69A3.9,3.9,0,0,0,108,20.79h0l-.35-1.43h-.08l-2.15.78v.49l1.06.25v5.37l-1,.32v.6h3.61v-.6l-1-.3V21.33a2.85,2.85,0,0,1,1.81-.8c1,0,1.4.62,1.45,1.73v4l-.89.3v.6h3.51v-.58l-1-.32Z"/><polygon class="cls-1" points="117.36 19.36 114.86 19.86 114.86 20.49 115.81 20.8 115.81 26.23 114.75 26.57 114.75 27.17 118.52 27.17 118.52 26.57 117.36 26.25 117.36 19.36"/><path class="cls-1" d="M117.58,16.26a1.08,1.08,0,0,0-2.15,0,1.07,1.07,0,0,0,1.07,1.06A1.08,1.08,0,0,0,117.58,16.26Z"/><path class="cls-1" d="M123.24,22.81l-.73-.31c-1-.42-1.25-.8-1.25-1.42A1.07,1.07,0,0,1,122.43,20a1.68,1.68,0,0,1,1.09.38l.67,1.44h.51l-.07-2a4.56,4.56,0,0,0-2-.5,2.61,2.61,0,0,0-2.84,2.29c0,1,.51,1.6,1.65,2.12l.7.32c1.14.51,1.49,1,1.49,1.56a1.2,1.2,0,0,1-1.34,1.17,1.88,1.88,0,0,1-1.31-.46l-.83-1.81h-.58l.26,2.32a4.58,4.58,0,0,0,2.22.62c1.64,0,3.1-1.07,3.1-2.44C125.13,24.13,124.67,23.43,123.24,22.81Z"/><path class="cls-1" d="M129.72,26.25c-.62,0-1.1-.08-1.1-1.33V20.48h2.07v-.9h-2.1V17.44H128l-.89,2-1.16.32v.68h1.12l0,5.14c0,1,.37,1.82,1.68,1.82a4.11,4.11,0,0,0,2.23-.75l-.11-.45A10.46,10.46,0,0,1,129.72,26.25Z"/><path class="cls-1" d="M136.29,19.34c-.59,0-1,.39-1.57,1.17l-.6.79h0l-.15-1.94h-.08l-2.32.78v.52l1.06.22v5.35l-1,.34v.6h4v-.6l-1.43-.27V21.93a5.07,5.07,0,0,1,1.08-1l1.32.49a1.8,1.8,0,0,0,.58-1.17A.78.78,0,0,0,136.29,19.34Z"/><path class="cls-1" d="M142.67,20.14l1.09.37-2,5.36h-.05l-1.9-5.44,1.14-.29v-.56H137.3v.56l.73.29,2.9,7.52L140.05,30h0a1,1,0,0,0-.86-.65.84.84,0,0,0-.86.89,1,1,0,0,0,1.07,1c.88,0,1.28-.64,1.81-2l3.49-8.8.73-.3v-.56h-2.73Z"/><path class="cls-1" d="M154.46,19.34a4,4,0,0,0-3.79,4.17,3.66,3.66,0,0,0,3.79,3.91,4,4,0,0,0,3.81-4.21A3.56,3.56,0,0,0,154.46,19.34Zm.23,7.33c-1.59,0-2.3-1.84-2.35-3.62s.68-2.94,1.92-3,2.29,1.29,2.32,3.58C156.63,25.35,155.9,26.65,154.69,26.67Z"/><path class="cls-1" d="M163.9,15.2c-1.82,0-3.51,1.89-3.51,4.14v.05l-1.13.34v.68h1.13v5.84l-1,.32v.6h4v-.6L162,26.25V20.44h2.14v-.86H162V18.32c0-1.76.75-2.38,1.61-2.38a1.47,1.47,0,0,1,.71.18l.4,1.39a1.3,1.3,0,0,0,.43.08.84.84,0,0,0,.89-.88C166,16,165.21,15.2,163.9,15.2Z"/><polygon class="cls-1" points="175.11 17.49 176.47 17.11 176.47 16.54 172 16.54 172 17.11 173.35 17.49 173.35 26.23 172 26.57 172 27.17 176.48 27.17 176.48 26.59 175.11 26.23 175.11 17.49"/><path class="cls-1" d="M185,22.05c0-2-.72-2.69-2.24-2.69a4,4,0,0,0-2.62,1.43h0l-.35-1.43h-.08l-2.15.78v.49l1.06.25v5.37l-1,.32v.6h3.61v-.6l-1-.3V21.33a2.85,2.85,0,0,1,1.81-.8c1,0,1.4.62,1.45,1.73v4l-.89.3v.6H186v-.58l-1-.32Z"/><path class="cls-1" d="M193.89,15.22l-3.07.42v.55l1.49.3v3a4.7,4.7,0,0,0-1.32-.17,4.09,4.09,0,0,0-4.06,4.41c0,1.86,1.06,3.65,3.22,3.65a3,3,0,0,0,2.31-1.15l.42,1.1,2.27-.32v-.56l-1.26-.32Zm-1.58,10.63a2.1,2.1,0,0,1-1.24.38c-1.9,0-2.56-1.65-2.56-3.3,0-1.83,1-2.82,2.12-2.82a2,2,0,0,1,1.68,1Z"/><path class="cls-1" d="M203.23,19.44l-2.85.29v.61l1.26.27v5a2.43,2.43,0,0,1-1.59.67c-1.06,0-1.57-.58-1.61-1.87v-5l-2.68.28v.62l1.11.3v4c0,1.86.83,2.81,2.18,2.81a3.57,3.57,0,0,0,2.65-1.34l.52,1.3,2.27-.35v-.58l-1.26-.3Z"/><path class="cls-1" d="M209.07,22.81l-.73-.31c-1-.42-1.25-.8-1.25-1.42A1.07,1.07,0,0,1,208.26,20a1.68,1.68,0,0,1,1.09.38l.67,1.44h.51l-.07-2a4.6,4.6,0,0,0-2-.5,2.62,2.62,0,0,0-2.85,2.29c0,1,.52,1.6,1.66,2.12l.7.32c1.14.51,1.49,1,1.49,1.56a1.2,1.2,0,0,1-1.34,1.17,1.88,1.88,0,0,1-1.31-.46L206,24.53h-.58l.26,2.32a4.58,4.58,0,0,0,2.22.62c1.64,0,3.1-1.07,3.1-2.44C211,24.13,210.5,23.43,209.07,22.81Z"/><path class="cls-1" d="M215.55,26.25c-.62,0-1.1-.08-1.1-1.33V20.48h2.07v-.9h-2.1V17.44h-.58l-.89,2-1.16.32v.68h1.12l0,5.14c0,1,.37,1.82,1.68,1.82a4.11,4.11,0,0,0,2.23-.75l-.11-.45A10.46,10.46,0,0,1,215.55,26.25Z"/><path class="cls-1" d="M222.12,19.34c-.59,0-1,.39-1.57,1.17l-.6.79h0l-.15-1.94h-.08l-2.32.78v.52l1.06.22v5.35l-1,.34v.6h4v-.6L220,26.3V21.93a5.07,5.07,0,0,1,1.08-1l1.32.49a1.8,1.8,0,0,0,.58-1.17A.79.79,0,0,0,222.12,19.34Z"/><path class="cls-1" d="M228.5,20.14l1.09.37-2,5.36h0l-1.9-5.44,1.14-.29v-.56h-3.66v.56l.73.29,2.9,7.52L225.88,30h0a1,1,0,0,0-.86-.65.85.85,0,0,0-.87.89,1,1,0,0,0,1.08,1c.88,0,1.28-.64,1.81-2l3.49-8.8.73-.3v-.56H228.5Z"/><polygon class="cls-1" points="114.55 36.62 115.9 36.24 115.9 35.67 112.29 35.67 112.2 36.42 109.4 43.28 106.04 35.67 102.53 35.67 102.53 36.24 103.89 36.62 103.84 45.35 102.48 45.72 102.48 46.3 106.59 46.3 106.59 45.72 104.78 45.15 104.8 37.12 108.26 44.83 108.61 45.82 109.24 45.82 109.57 44.82 112.86 36.92 112.82 45.37 111.41 45.7 111.41 46.3 115.95 46.3 115.95 45.72 114.6 45.37 114.55 36.62"/><path class="cls-1" d="M117.57,35.39a1.08,1.08,0,0,0,1.07,1.07,1.06,1.06,0,1,0,0-2.12A1.07,1.07,0,0,0,117.57,35.39Z"/><polygon class="cls-1" points="119.5 38.49 117 38.99 117 39.63 117.95 39.93 117.95 45.37 116.89 45.7 116.89 46.3 120.66 46.3 120.66 45.7 119.5 45.38 119.5 38.49"/><path class="cls-1" d="M128.91,41.18c0-2-.71-2.69-2.23-2.69a3.86,3.86,0,0,0-2.62,1.44h0l-.35-1.44h-.08l-2.16.79v.48l1.06.25v5.37l-1,.32v.6h3.61v-.6l-1-.3V40.46a2.78,2.78,0,0,1,1.8-.8c1,0,1.41.62,1.46,1.74v4l-.9.3v.6H130v-.58l-1-.32Z"/><path class="cls-1" d="M135.15,45.23c-1.64,0-2.78-1.18-2.78-3.23h5.28c0-2.21-1-3.51-2.91-3.51-2.19,0-3.84,1.82-3.84,4.31a3.55,3.55,0,0,0,3.56,3.75,3.63,3.63,0,0,0,3.23-2.22l-.33-.23A3,3,0,0,1,135.15,45.23Zm-.77-6c1,0,1.49,1,1.5,2h-3.44A2.16,2.16,0,0,1,134.38,39.26Z"/><path class="cls-1" d="M143.63,38.48c-.59,0-1,.38-1.57,1.16l-.6.79h0l-.15-1.94h-.08l-2.32.79v.51l1.06.22v5.36l-1,.33v.6h4v-.6l-1.43-.27V41.06a4.75,4.75,0,0,1,1.08-1l1.32.48a1.8,1.8,0,0,0,.58-1.17A.78.78,0,0,0,143.63,38.48Z"/><path class="cls-1" d="M151,45.12V40.91c0-1.63-.7-2.42-2.4-2.42s-3.2,1.19-3.2,2c0,.45.28.72.81.72a4.19,4.19,0,0,0,.71-.08l.07-1.61a1.93,1.93,0,0,1,.94-.26c.88,0,1.43.6,1.48,1.87v.78l-1.67.43c-1.63.42-2.57,1-2.57,2.29a1.9,1.9,0,0,0,2,1.94c1,0,1.46-.51,2.27-1.32h.05a1.16,1.16,0,0,0,1.22,1.28,5.12,5.12,0,0,0,1.63-.43v-.49h-.75C151.07,45.58,151,45.47,151,45.12Zm-1.59-.52a1.63,1.63,0,0,1-1.33.77,1.18,1.18,0,0,1-1.27-1.22c0-.65.45-.95,1.24-1.24l1.36-.45Z"/><polygon class="cls-1" points="155.59 34.35 152.97 34.89 152.97 35.45 154.01 35.76 154.01 45.38 153 45.7 153 46.3 156.68 46.3 156.68 45.7 155.59 45.4 155.59 34.35"/><path class="cls-1" d="M167,41.05v0c1.38-.49,2.37-1.34,2.37-2.74,0-1.68-1.57-2.7-4.58-2.67l-3.86.05v.57l1.35.38v8.75l-1.35.33v.6h4.42v-.58l-1.31-.35V41.56l1.29-.06s.22.31.68,1l2.65,3.77h2.75v-.58l-1.37-.34Zm-1.73-.17h-1.23V36.22c2.24,0,3.49.89,3.49,2.41A2.36,2.36,0,0,1,165.28,40.88Z"/><path class="cls-1" d="M175.77,45.23c-1.64,0-2.78-1.18-2.78-3.23h5.28c0-2.21-1-3.51-2.91-3.51-2.19,0-3.84,1.82-3.84,4.31a3.55,3.55,0,0,0,3.56,3.75,3.63,3.63,0,0,0,3.23-2.22L178,44.1A3,3,0,0,1,175.77,45.23Zm-.77-6c1,0,1.49,1,1.5,2h-3.44A2.16,2.16,0,0,1,175,39.26Z"/><path class="cls-1" d="M183.36,42l-.73-.32c-1-.42-1.26-.8-1.26-1.42a1.09,1.09,0,0,1,1.18-1.07,1.7,1.7,0,0,1,1.09.39L184.3,41h.52l-.07-2a4.49,4.49,0,0,0-2-.5,2.62,2.62,0,0,0-2.85,2.28c0,1,.51,1.6,1.66,2.12l.69.32c1.14.52,1.49,1,1.49,1.57a1.19,1.19,0,0,1-1.34,1.16,1.92,1.92,0,0,1-1.31-.46l-.83-1.8h-.57l.26,2.31a4.55,4.55,0,0,0,2.22.62c1.64,0,3.1-1.07,3.1-2.43C185.25,43.26,184.78,42.56,183.36,42Z"/><path class="cls-1" d="M190.35,38.48a4,4,0,0,0-3.8,4.17,3.66,3.66,0,0,0,3.8,3.9,4,4,0,0,0,3.81-4.2A3.57,3.57,0,0,0,190.35,38.48Zm.23,7.32c-1.59,0-2.3-1.83-2.35-3.62s.68-2.94,1.92-3,2.28,1.28,2.32,3.57C192.52,44.48,191.79,45.78,190.58,45.8Z"/><path class="cls-1" d="M202.39,38.58l-2.85.28v.62l1.26.26v5a2.52,2.52,0,0,1-1.59.66c-1.06,0-1.58-.58-1.61-1.87v-5l-2.68.29v.61l1.11.3v4c0,1.85.82,2.8,2.18,2.8a3.57,3.57,0,0,0,2.65-1.34l.52,1.31,2.26-.35V45.6l-1.25-.3Z"/><path class="cls-1" d="M209,38.48c-.6,0-1,.38-1.57,1.16l-.6.79h0l-.15-1.94h-.09l-2.31.79v.51l1.06.22v5.36l-1,.33v.6h4v-.6l-1.42-.27V41.06a4.75,4.75,0,0,1,1.08-1l1.32.48a1.84,1.84,0,0,0,.58-1.17A.78.78,0,0,0,209,38.48Z"/><path class="cls-1" d="M214.66,45.3c-1.58,0-2.72-1.4-2.72-3.24,0-1.57.89-2.83,2.2-2.83a1.54,1.54,0,0,1,.9.23l.23,1.57a3.79,3.79,0,0,0,.59,0,.87.87,0,0,0,.9-.94c0-.9-1-1.65-2.35-1.65a4.16,4.16,0,0,0-4.06,4.29,3.45,3.45,0,0,0,3.48,3.77,3.32,3.32,0,0,0,3-2l-.34-.25A2.53,2.53,0,0,1,214.66,45.3Z"/><path class="cls-1" d="M222.09,45.23c-1.64,0-2.78-1.18-2.78-3.23h5.28c0-2.21-1-3.51-2.91-3.51-2.19,0-3.85,1.82-3.85,4.31a3.52,3.52,0,0,0,6.79,1.53l-.33-.23A3,3,0,0,1,222.09,45.23Zm-.78-6c1,0,1.49,1,1.51,2h-3.45A2.16,2.16,0,0,1,221.31,39.26Z"/><path class="cls-1" d="M229.67,42l-.72-.32c-1-.42-1.26-.8-1.26-1.42a1.08,1.08,0,0,1,1.17-1.07,1.7,1.7,0,0,1,1.1.39l.66,1.43h.51l-.06-2a4.49,4.49,0,0,0-2-.5,2.62,2.62,0,0,0-2.85,2.28c0,1,.51,1.6,1.65,2.12l.7.32c1.14.52,1.49,1,1.49,1.57a1.19,1.19,0,0,1-1.34,1.16,1.9,1.9,0,0,1-1.31-.46l-.83-1.8H226l.27,2.31a4.55,4.55,0,0,0,2.22.62c1.64,0,3.09-1.07,3.09-2.43C231.56,43.26,231.1,42.56,229.67,42Z"/><path class="cls-1" d="M97.76,39.68a2.22,2.22,0,0,0-2,1.23c-.45.62-.87,1.29-1.46,2.15a17,17,0,0,1,2.79,3.33l-.09.16a4.42,4.42,0,0,1-2.2-.65c-.21-.23-.91-1-1.47-1.56-1.21,1.56-2.31,2.14-3.51,2.14a3.16,3.16,0,0,1-3.38-3c0-1.51,1-2.11,2.5-3.13A3,3,0,0,1,87.74,38a2.76,2.76,0,0,1,2.83-2.63,2.4,2.4,0,0,1,2.56,2.3,1.8,1.8,0,0,1-.71,1.44,15,15,0,0,1-1.36,1c.56.46,1.74,1.44,2.83,2.51a11.4,11.4,0,0,0,1-1.84c.3-.74.16-.95-1-1.11v-.47h3.9Zm-7.42,5.61a3.5,3.5,0,0,0,2.59-1.41,29.78,29.78,0,0,0-3.54-3.16A2.69,2.69,0,0,0,88,43a2.28,2.28,0,0,0,2.33,2.34ZM90.4,36a1.46,1.46,0,0,0-1.34,1.64c0,.85.51,1.41,1.55,2.18a2.47,2.47,0,0,0,1.19-2.08A1.57,1.57,0,0,0,90.43,36Z"/><path class="cls-2" d="M.13,21.48v.07S.13,21.51.13,21.48Z"/><path class="cls-3" d="M61.35,31.78l0,0"/><path class="cls-3" d="M61.35,31.78l0,0"/><path class="cls-4" d="M45.35,65.37c.23-.06.46-.14.69-.22Z"/><path class="cls-5" d="M66.94,36.06C66.63,40.63,64.73,49,62.22,52.9,60.08,56.26,53,62.4,47,64.81l-.06,0h0l0,0-.05,0,0,0C43.8,66,40.17,64.3,38.07,63L38,63c-.38-.22-.7-.43-1-.61-.44-.3-.69-.49-.69-.49-.57-.43-1.14-.87-1.7-1.34l-.44-.38c-.18-.14-.35-.3-.53-.45L32.9,59l-.78-.73-.82-.79c-.41-.39-.81-.79-1.21-1.19,9-1.95,23.12-7.52,31-13.22,3.28-2.37,5.49-4.76,5.8-6.91C66.93,36.13,66.93,36.09,66.94,36.06Z"/><path class="cls-4" d="M66.91,36v.06s0,.08,0,.12Z"/><path class="cls-6" d="M46.74,64.91c-.16.06-.39.15-.67.24l-.69.22a4.26,4.26,0,0,1-.54.15l-.25.06-.26.06-.3,0-.38.06c-4.59.5-17.42-1.42-25.36-5.09L18,60.5l-.35-.17A18.11,18.11,0,0,1,12.05,56C6.57,49.21-.06,32.71,0,23.25v0a9.79,9.79,0,0,1,1.43-4.39,1.3,1.3,0,0,0,.1-.15c.06-.11.13-.21.2-.32a20,20,0,0,1,5.7-5.58C10,25.5,18.43,44.49,30.09,56.3c.4.4.8.8,1.21,1.19s1.06,1,1.6,1.52l.78.71c.18.15.35.31.53.45l.44.38c.56.47,1.13.91,1.7,1.34l.69.49c.26.18.58.39,1,.61l.07,0C40.17,64.3,43.8,66,46.74,64.91Z"/><path class="cls-7" d="M.12,21.58c-.06.51-.09,1-.11,1.36C0,22.56.06,22.09.12,21.58Z"/><path class="cls-8" d="M0,23.11v.16A.86.86,0,0,1,0,23.11Z"/><path class="cls-9" d="M.12,21.55v0Z"/><path class="cls-10" d="M66.91,36v.06s0,.08,0,.12Z"/><path class="cls-11" d="M66.91,36.05V36l0,.18c-.31,2.15-2.52,4.54-5.8,6.91a59.69,59.69,0,0,1-14.86-8C33.88,26.13,26,11.29,15.57,10.53a13.36,13.36,0,0,0-8.13,2.25,19.86,19.86,0,0,0-5.7,5.58c-.07.11-.14.21-.2.32l-.1.14A9.82,9.82,0,0,0,0,23.22v-.28c0-.38,0-.85.11-1.36v-.1c0-.06,0-.13,0-.19v0C1.64,11.23,12.1-.23,20.59,0c10.3.28,19.09,12.54,27.08,19.92,6.85,6.32,12.38,9,15.86,11.26h0c2.25,1.44,3.5,2.73,3.37,4.8Z"/></svg>